<?xml version="1.0" encoding="UTF-8"?>
<svg width="140px" height="140px" viewBox="0 0 140 140" version="1.1" xmlns="http://www.w3.org/2000/svg" xmlns:xlink="http://www.w3.org/1999/xlink">
    <title>tip_address (1)</title>
    <defs>
        <linearGradient x1="53.26356%" y1="48.2543163%" x2="53.2547%" y2="51.7456837%" id="linearGradient-1">
            <stop stop-color="#E9EBF0" stop-opacity="0" offset="0%"></stop>
            <stop stop-color="#EAECF1" offset="100%"></stop>
        </linearGradient>
    </defs>
    <g id="页面-1" stroke="none" stroke-width="1" fill="none" fill-rule="evenodd">
        <g id="缺省图-暂无地址" transform="translate(-118.000000, -236.000000)" fill-rule="nonzero">
            <g id="tip_address-(1)" transform="translate(118.000000, 236.000000)">
                <ellipse id="Ellipse" fill="url(#linearGradient-1)" opacity="0.602778843" cx="69.840757" cy="112.438263" rx="53.05853" ry="9.914093"></ellipse>
                <rect id="Rectangle-3" fill-opacity="0" fill="#D3D3D3" x="0" y="0" width="140" height="140"></rect>
                <path d="M33,85 L107,85 L113.543176,107.901115 C114.150073,110.025256 112.920105,112.239199 110.795965,112.846096 C110.438599,112.9482 110.068746,113 109.69708,113 L30.3029199,113 C28.0937809,113 26.3029199,111.209139 26.3029199,109 C26.3029199,108.628334 26.3547196,108.258481 26.4568241,107.901115 L33,85 L33,85 Z" id="矩形" fill="#FBFCFE"></path>
                <ellipse id="椭圆形" fill="#EAEDF1" cx="70" cy="100.5" rx="18" ry="5.5"></ellipse>
                <path d="M37,46 L103,46 C105.209139,46 107,47.790861 107,50 L107,85 L107,85 L33,85 L33,50 C33,47.790861 34.790861,46 37,46 Z" id="矩形" fill="#EAEDF1"></path>
                <g id="Group-4" transform="translate(70.349976, 30.149903) scale(-1, 1) translate(-70.349976, -30.149903) translate(13.699951, 15.299805)" fill="#C3CAD4">
                    <circle id="椭圆形" cx="4" cy="25.7001946" r="4"></circle>
                    <g id="Group-10" transform="translate(99.300050, 0.000000)">
                        <rect id="矩形" x="0" y="4.99999957" width="14" height="4"></rect>
                        <rect id="矩形备份-18" transform="translate(6.999999, 7.000000) rotate(-90.000000) translate(-6.999999, -7.000000) " x="-1e-06" y="5" width="14" height="4"></rect>
                    </g>
                </g>
                <path d="M70.0000281,45.6875097 C76.7973377,45.6875097 82.3076459,51.1978179 82.3076459,57.9951276 C82.3076459,64.7924372 76.7973377,70.3027455 70.0000281,70.3027455 C63.2027184,70.3027455 57.6924102,64.7924372 57.6924102,57.9951276 C57.6924102,51.1978179 63.2027184,45.6875097 70.0000281,45.6875097 Z M97,58.0005351 C97,46.4703273 89.6772058,36.2127607 78.7725668,32.4664904 C67.8679278,28.72022 55.7876462,32.3120465 48.701258,41.4075836 C41.6148697,50.5031208 41.0863386,63.0949862 47.3855913,72.7523724 L67.5828465,99.682046 C68.0402278,100.599749 68.9773653,101.179763 70.0027319,101.179763 C71.0280984,101.179763 71.965236,100.599749 72.4226172,99.682046 L92.6577253,72.7523724 C95.3831381,68.5020264 97,63.4513607 97,58.0005351 L97,58.0005351 Z" id="形状" fill="#C3CAD4"></path>
            </g>
        </g>
    </g>
</svg>