<?xml version="1.0" encoding="UTF-8"?>
<svg width="375px" height="100px" viewBox="0 0 375 100" version="1.1" xmlns="http://www.w3.org/2000/svg" xmlns:xlink="http://www.w3.org/1999/xlink">
    <title>背景</title>
    <defs>
        <rect id="path-1" x="0" y="0" width="375" height="100"></rect>
    </defs>
    <g id="页面-1" stroke="none" stroke-width="1" fill="none" fill-rule="evenodd">
        <g id="订单详情-待预约" transform="translate(0.000000, -88.000000)">
            <g id="背景" transform="translate(187.500000, 138.000000) scale(-1, 1) translate(-187.500000, -138.000000) translate(0.000000, 88.000000)">
                <mask id="mask-2" fill="white">
                    <use xlink:href="#path-1"></use>
                </mask>
                <use id="Rectangle-2" fill="#FFFFFF" xlink:href="#path-1"></use>
                <path d="M-20.9,109.852784 C36.367835,96.126258 96.5293637,96.126258 159.584586,109.852784 C222.639809,123.579311 296.47828,121.863495 381.1,104.705337 L381.1,142.073936 L-20.9,139.689293 L-20.9,109.852784 Z" id="Path-3" fill="#0092D8" opacity="0.0418526786" mask="url(#mask-2)"></path>
                <path d="M-308,69.2495066 C-256.365412,47.5291322 -199.875064,41.7392562 -138.528955,51.8798785 C-12.3929346,72.7303902 3.78451978,25.8993586 76.961582,25.8993586 C135.133511,25.8993586 174.763212,65.0432359 229.765213,65.0432359 C284.996924,65.0432359 297.675363,20.9963346 354.049508,10.9625946 C377.085208,6.86259046 417.402038,11.8415118 475,25.8993586 L475,116.69387 L-308,116.69387 L-308,69.2495066 Z" id="Path-3-Copy-2" fill="#0092D8" opacity="0.0418526786" mask="url(#mask-2)" transform="translate(83.500000, 63.133903) scale(-1, 1) translate(-83.500000, -63.133903) "></path>
                <path d="M-26.3978074,50.3730062 C-3.50014438,41.8108784 23.3748343,65.063267 73.4053149,73.1155111 C134.865774,83.0073732 155.996562,64.1077205 183.541447,64.1077205 C215.954626,64.1077205 238.036145,87.5729382 268.683053,87.5729382 C299.457953,87.5729382 308.175065,64.1077205 351.604494,64.1077205 C376.2289,64.1077205 399.954325,69.5979615 422.780769,80.5784434 L422.780769,117.667687 L-30.9576923,115.062209 C-40.2419395,76.5444533 -38.7219779,54.9813858 -26.3978074,50.3730062 Z" id="Path-3-Copy" fill="#0092D8" opacity="0.0418526786" mask="url(#mask-2)"></path>
            </g>
        </g>
    </g>
</svg>