<?xml version="1.0" encoding="UTF-8"?>
<svg width="16px" height="16px" viewBox="0 0 16 16" version="1.1" xmlns="http://www.w3.org/2000/svg" xmlns:xlink="http://www.w3.org/1999/xlink">
    <title>切片</title>
    <g id="页面-1" stroke="none" stroke-width="1" fill="none" fill-rule="evenodd">
        <g id="取消原因" transform="translate(-335.000000, -684.000000)" fill="#333333">
            <g id="编组-4备份-2" transform="translate(12.000000, 666.000000)">
                <g id="编组-2" transform="translate(12.000000, 16.000000)">
                    <g id="icon-fanhui-hei" transform="translate(319.000000, 10.000000) scale(-1, 1) translate(-319.000000, -10.000000) translate(311.000000, 2.000000)">
                        <path d="M6.48138911,8.35714286 L10.8202774,12.6724729 C11.0599075,12.910802 11.0599075,13.2972098 10.8202774,13.5355389 C10.5806472,13.773868 10.1921299,13.773868 9.95249971,13.5355389 L5.17972264,8.78867586 C5.05990755,8.66951131 5,8.51332708 5,8.35714286 C5,8.20095863 5.05990755,8.0447744 5.17972264,7.92560985 L9.95249971,3.17874682 C10.1921299,2.94041773 10.5806472,2.94041773 10.8202774,3.17874682 C11.0599075,3.41707592 11.0599075,3.80348373 10.8202774,4.04181283 L6.48138911,8.35714286 Z" id="路径" transform="translate(8.000000, 8.357143) scale(1, -1) rotate(-270.000000) translate(-8.000000, -8.357143) "></path>
                    </g>
                </g>
            </g>
        </g>
    </g>
</svg>